<?xml version="1.0" encoding="utf-8"?>
<svg xmlns="http://www.w3.org/2000/svg" xmlns:xlink="http://www.w3.org/1999/xlink" style="margin: auto; background: rgb(12, 23, 38); display: block; z-index: 1; position: relative; shape-rendering: auto;" width="1920" height="955" preserveAspectRatio="xMidYMid" viewBox="0 0 1920 955">
<g transform="translate(960,477.5) scale(1,1) translate(-960,-477.5)"><path id="path0" d="M 146.53605609781397 911.1318038838069
c 0 27.995822545787536 -6.850041686735247 8.041353284428336 -14.891394971163583 8.041353284428336
S 116.75326615548681 939.1276264295944 116.75326615548681 911.1318038838069
s 6.850041686735247 -8.041353284428336 14.891394971163583 -8.041353284428336
S 146.53605609781397 883.1359813380194 146.53605609781397 911.1318038838069
z" fill="none" stroke="none"></path>
<circle cx="0" cy="0" r="0.9361122084660778" fill="#303f63" opacity="0.9">
  <animateMotion begin="-8.740129892867953s" dur="9.5s" repeatCount="indefinite">
    <mpath xlink:href="#path0"></mpath>
  </animateMotion>
</circle><path id="path1" d="M 113.04706790875686 480.33502668773804
c 0 26.629164852857 -6.515646719316074 7.648802670501479 -14.164449389817552 7.648802670501479
S 84.71816912912176 506.96419154059504 84.71816912912176 480.33502668773804
s 6.515646719316074 -7.648802670501479 14.164449389817552 -7.648802670501479
S 113.04706790875686 453.70586183488103 113.04706790875686 480.33502668773804
z" fill="none" stroke="none"></path>
<circle cx="0" cy="0" r="1.156992595217466" fill="#6d82b1" opacity="0.9">
  <animateMotion begin="-8.356435363463609s" dur="9.5s" repeatCount="indefinite">
    <mpath xlink:href="#path1"></mpath>
  </animateMotion>
</circle><path id="path2" d="M 1436.4130990914778 672.6125312211431
c 0 30.90705299965725 -7.562364031831028 8.877557776497296 -16.439921808328325 8.877557776497296
S 1403.533255474821 703.5195842208003 1403.533255474821 672.6125312211431
s 7.562364031831028 -8.877557776497296 16.439921808328325 -8.877557776497296
S 1436.4130990914778 641.7054782214858 1436.4130990914778 672.6125312211431
z" fill="none" stroke="none"></path>
<circle cx="0" cy="0" r="1.2036280755026325" fill="#a3945d" opacity="0.9">
  <animateMotion begin="-7.48895539691804s" dur="9.5s" repeatCount="indefinite">
    <mpath xlink:href="#path2"></mpath>
  </animateMotion>
</circle><path id="path3" d="M 1440.992759962364 100.00270580142521
c 0 24.36226520998978 -5.96097978542303 6.997671922018341 -12.958651707441371 6.997671922018341
S 1415.0754565474815 124.36497101141498 1415.0754565474815 100.00270580142521
s 5.96097978542303 -6.997671922018341 12.958651707441371 -6.997671922018341
S 1440.992759962364 75.64044059143544 1440.992759962364 100.00270580142521
z" fill="none" stroke="none"></path>
<circle cx="0" cy="0" r="1.0050529913379487" fill="#a3945d" opacity="0.9">
  <animateMotion begin="-0.8478664294991621s" dur="9.5s" repeatCount="indefinite">
    <mpath xlink:href="#path3"></mpath>
  </animateMotion>
</circle><path id="path4" d="M 1731.2244226792202 516.467388453631
c 0 28.131086208649894 -6.883138114882421 8.080205613122843 -14.963343728005263 8.080205613122843
S 1701.2977352232099 544.5984746622809 1701.2977352232099 516.467388453631
s 6.883138114882421 -8.080205613122843 14.963343728005263 -8.080205613122843
S 1731.2244226792202 488.3363022449811 1731.2244226792202 516.467388453631
z" fill="none" stroke="none"></path>
<circle cx="0" cy="0" r="1.135581081761563" fill="#a3945d" opacity="0.9">
  <animateMotion begin="-6.005711817117302s" dur="9.5s" repeatCount="indefinite">
    <mpath xlink:href="#path4"></mpath>
  </animateMotion>
</circle><path id="path5" d="M 1503.3441051689929 621.9914458393334
c 0 32.70265041891819 -8.001712336543811 9.393314482029693 -17.395026818573506 9.393314482029693
S 1468.5540515318457 654.6940962582516 1468.5540515318457 621.9914458393334
s 8.001712336543811 -9.393314482029693 17.395026818573506 -9.393314482029693
S 1503.3441051689929 589.2887954204152 1503.3441051689929 621.9914458393334
z" fill="none" stroke="none"></path>
<circle cx="0" cy="0" r="0.8185907716009291" fill="#303f63" opacity="0.9">
  <animateMotion begin="-3.1489642188348856s" dur="9.5s" repeatCount="indefinite">
    <mpath xlink:href="#path5"></mpath>
  </animateMotion>
</circle><path id="path6" d="M 103.4430493155751 257.0955226878891
c 0 36.1490486775366 -8.844979995567465 10.383237386100939 -19.228217381668404 10.383237386100939
S 64.9866145522383 293.2445713654257 64.9866145522383 257.0955226878891
s 8.844979995567465 -10.383237386100939 19.228217381668404 -10.383237386100939
S 103.4430493155751 220.94647401035252 103.4430493155751 257.0955226878891
z" fill="none" stroke="none"></path>
<circle cx="0" cy="0" r="1.253593136955568" fill="#dad69f" opacity="0.9">
  <animateMotion begin="-4.150327228136082s" dur="9.5s" repeatCount="indefinite">
    <mpath xlink:href="#path6"></mpath>
  </animateMotion>
</circle><path id="path7" d="M 1077.173558516608 91.45442959252533
c 0 30.145109438918826 -7.375931032926946 8.658701647349025 -16.03463268027597 8.658701647349025
S 1045.104293156056 121.59953903144415 1045.104293156056 91.45442959252533
s 7.375931032926946 -8.658701647349025 16.03463268027597 -8.658701647349025
S 1077.173558516608 61.30932015360651 1077.173558516608 91.45442959252533
z" fill="none" stroke="none"></path>
<circle cx="0" cy="0" r="0.8542385649533479" fill="#6d82b1" opacity="0.9">
  <animateMotion begin="-5.423101217858485s" dur="9.5s" repeatCount="indefinite">
    <mpath xlink:href="#path7"></mpath>
  </animateMotion>
</circle><path id="path8" d="M 1004.3433969308512 151.5627648323392
c 0 25.94003484556472 -6.3470298026381755 7.4508610726622075 -13.797890875300382 7.4508610726622075
S 976.7476151802505 177.50279967790394 976.7476151802505 151.5627648323392
s 6.3470298026381755 -7.4508610726622075 13.797890875300382 -7.4508610726622075
S 1004.3433969308512 125.62272998677449 1004.3433969308512 151.5627648323392
z" fill="none" stroke="none"></path>
<circle cx="0" cy="0" r="1.0429056501967637" fill="#feeb54" opacity="0.9">
  <animateMotion begin="-8.08819536705388s" dur="9.5s" repeatCount="indefinite">
    <mpath xlink:href="#path8"></mpath>
  </animateMotion>
</circle><path id="path9" d="M 1274.5904317177794 248.307023068872
c 0 32.72181276936761 -8.00640099676016 9.398818561414101 -17.40521955817426 9.398818561414101
S 1239.779992601431 281.0288358382396 1239.779992601431 248.307023068872
s 8.00640099676016 -9.398818561414101 17.40521955817426 -9.398818561414101
S 1274.5904317177794 215.5852102995044 1274.5904317177794 248.307023068872
z" fill="none" stroke="none"></path>
<circle cx="0" cy="0" r="0.9040796904458955" fill="#a3945d" opacity="0.9">
  <animateMotion begin="-4.302929410019714s" dur="9.5s" repeatCount="indefinite">
    <mpath xlink:href="#path9"></mpath>
  </animateMotion>
</circle><path id="path10" d="M 698.0678719509893 199.0325145302183
c 0 24.820691350251387 -6.0731478835721475 7.12934751549774 -13.202495399069887 7.12934751549774
S 671.6628811528495 223.8532058804697 671.6628811528495 199.0325145302183
s 6.0731478835721475 -7.12934751549774 13.202495399069887 -7.12934751549774
S 698.0678719509893 174.2118231799669 698.0678719509893 199.0325145302183
z" fill="none" stroke="none"></path>
<circle cx="0" cy="0" r="1.2114107457724987" fill="#151e2f" opacity="0.9">
  <animateMotion begin="-4.9850093266368845s" dur="9.5s" repeatCount="indefinite">
    <mpath xlink:href="#path10"></mpath>
  </animateMotion>
</circle><path id="path11" d="M 722.3963186844669 299.98171599440144
c 0 22.526720088063975 -5.511857042824164 6.4704408763588015 -11.982297919182965 6.4704408763588015
S 698.4317228461009 322.50843608246544 698.4317228461009 299.98171599440144
s 5.511857042824164 -6.4704408763588015 11.982297919182965 -6.4704408763588015
S 722.3963186844669 277.45499590633744 722.3963186844669 299.98171599440144
z" fill="none" stroke="none"></path>
<circle cx="0" cy="0" r="1.1445850301836238" fill="#303f63" opacity="0.9">
  <animateMotion begin="-8.240701169243245s" dur="9.5s" repeatCount="indefinite">
    <mpath xlink:href="#path11"></mpath>
  </animateMotion>
</circle><path id="path12" d="M 481.1212786844769 774.805777826965
c 0 22.798319018961717 -5.57831210038425 6.548453335233685 -12.126765435617934 6.548453335233685
S 456.86774781324107 797.6040968459267 456.86774781324107 774.805777826965
s 5.57831210038425 -6.548453335233685 12.126765435617934 -6.548453335233685
S 481.1212786844769 752.0074588080033 481.1212786844769 774.805777826965
z" fill="none" stroke="none"></path>
<circle cx="0" cy="0" r="1.2288836070220523" fill="#6d82b1" opacity="0.9">
  <animateMotion begin="-7.13508163079922s" dur="9.5s" repeatCount="indefinite">
    <mpath xlink:href="#path12"></mpath>
  </animateMotion>
</circle><path id="path13" d="M 1305.5734011619368 67.67346413433437
c 0 19.819773071115353 -4.849518942932479 5.692913541703347 -10.542432484635826 5.692913541703347
S 1284.4885361926652 87.49323720544972 1284.4885361926652 67.67346413433437
s 4.849518942932479 -5.692913541703347 10.542432484635826 -5.692913541703347
S 1305.5734011619368 47.85369106321902 1305.5734011619368 67.67346413433437
z" fill="none" stroke="none"></path>
<circle cx="0" cy="0" r="1.350242003992269" fill="#feeb54" opacity="0.9">
  <animateMotion begin="-8.261841977069764s" dur="9.5s" repeatCount="indefinite">
    <mpath xlink:href="#path13"></mpath>
  </animateMotion>
</circle><path id="path14" d="M 437.3439142819682 92.07211820679609
c 0 36.431814753102195 -8.914167439588834 10.464457429082545 -19.37862486867138 10.464457429082545
S 398.5866645446255 128.5039329598983 398.5866645446255 92.07211820679609
s 8.914167439588834 -10.464457429082545 19.37862486867138 -10.464457429082545
S 437.3439142819682 55.640303453693896 437.3439142819682 92.07211820679609
z" fill="none" stroke="none"></path>
<circle cx="0" cy="0" r="1.225749952894562" fill="#2a3e83" opacity="0.9">
  <animateMotion begin="-0.2306959698875356s" dur="9.5s" repeatCount="indefinite">
    <mpath xlink:href="#path14"></mpath>
  </animateMotion>
</circle><path id="path15" d="M 1670.2388915545143 126.76463875209541
c 0 22.211007191634366 -5.43460814263394 6.379757384831147 -11.814365527465087 6.379757384831147
S 1646.6101604995843 148.97564594372977 1646.6101604995843 126.76463875209541
s 5.43460814263394 -6.379757384831147 11.814365527465087 -6.379757384831147
S 1670.2388915545143 104.55363156046104 1670.2388915545143 126.76463875209541
z" fill="none" stroke="none"></path>
<circle cx="0" cy="0" r="1.1051894492410956" fill="#a3945d" opacity="0.9">
  <animateMotion begin="-6.208606768053087s" dur="9.5s" repeatCount="indefinite">
    <mpath xlink:href="#path15"></mpath>
  </animateMotion>
</circle><path id="path16" d="M 945.6452761058847 556.0085229327532
c 0 24.75553032521533 -6.057204228510133 7.110631050859722 -13.167835279369855 7.110631050859722
S 919.3096055471449 580.7640532579685 919.3096055471449 556.0085229327532
s 6.057204228510133 -7.110631050859722 13.167835279369855 -7.110631050859722
S 945.6452761058847 531.2529926075379 945.6452761058847 556.0085229327532
z" fill="none" stroke="none"></path>
<circle cx="0" cy="0" r="1.1080088999529092" fill="#303f63" opacity="0.9">
  <animateMotion begin="-3.820993344058782s" dur="9.5s" repeatCount="indefinite">
    <mpath xlink:href="#path16"></mpath>
  </animateMotion>
</circle><path id="path17" d="M 1873.2533119403402 420.1957479560544
c 0 23.628444194179906 -5.781427834746146 6.786893545136781 -12.568321379882928 6.786893545136781
S 1848.1166691805743 443.8241921502343 1848.1166691805743 420.1957479560544
s 5.781427834746146 -6.786893545136781 12.568321379882928 -6.786893545136781
S 1873.2533119403402 396.5673037618745 1873.2533119403402 420.1957479560544
z" fill="none" stroke="none"></path>
<circle cx="0" cy="0" r="1.1235765346608864" fill="#2a3e83" opacity="0.9">
  <animateMotion begin="-3.3609384059972367s" dur="9.5s" repeatCount="indefinite">
    <mpath xlink:href="#path17"></mpath>
  </animateMotion>
</circle><path id="path18" d="M 359.4516946998768 553.2320389437299
c 0 29.015050185379025 -7.099427173018271 8.334110159630146 -15.433537332648417 8.334110159630146
S 328.5846200345799 582.2470891291089 328.5846200345799 553.2320389437299
s 7.099427173018271 -8.334110159630146 15.433537332648417 -8.334110159630146
S 359.4516946998768 524.2169887583509 359.4516946998768 553.2320389437299
z" fill="none" stroke="none"></path>
<circle cx="0" cy="0" r="0.9739474844496088" fill="#feeb54" opacity="0.9">
  <animateMotion begin="-4.4106417526639845s" dur="9.5s" repeatCount="indefinite">
    <mpath xlink:href="#path18"></mpath>
  </animateMotion>
</circle><path id="path19" d="M 1146.1758419884009 390.5493768936018
c 0 29.109897095039674 -7.1226343955948135 8.361353420915652 -15.483987816510465 8.361353420915652
S 1115.2078663553798 419.6592739886415 1115.2078663553798 390.5493768936018
s 7.1226343955948135 -8.361353420915652 15.483987816510465 -8.361353420915652
S 1146.1758419884009 361.4394797985621 1146.1758419884009 390.5493768936018
z" fill="none" stroke="none"></path>
<circle cx="0" cy="0" r="1.1603309077569763" fill="#303f63" opacity="0.9">
  <animateMotion begin="-0.3603248832471415s" dur="9.5s" repeatCount="indefinite">
    <mpath xlink:href="#path19"></mpath>
  </animateMotion>
</circle><path id="path20" d="M 72.03328352662169 835.5500862226984
c 0 28.364221577075938 -6.940181875241984 8.147170027457982 -15.087351902699966 8.147170027457982
S 41.85857972122176 863.9143077997743 41.85857972122176 835.5500862226984
s 6.940181875241984 -8.147170027457982 15.087351902699966 -8.147170027457982
S 72.03328352662169 807.1858646456225 72.03328352662169 835.5500862226984
z" fill="none" stroke="none"></path>
<circle cx="0" cy="0" r="1.3104954841958967" fill="#feeb54" opacity="0.9">
  <animateMotion begin="-1.325995124246135s" dur="9.5s" repeatCount="indefinite">
    <mpath xlink:href="#path20"></mpath>
  </animateMotion>
</circle><path id="path21" d="M 1417.9793470020554 774.6729733893314
c 0 27.80509771300638 -6.803374972331348 7.986570619693322 -14.789945592024669 7.986570619693322
S 1388.3994558180061 802.4780711023378 1388.3994558180061 774.6729733893314
s 6.803374972331348 -7.986570619693322 14.789945592024669 -7.986570619693322
S 1417.9793470020554 746.8678756763251 1417.9793470020554 774.6729733893314
z" fill="none" stroke="none"></path>
<circle cx="0" cy="0" r="0.8906181914420017" fill="#151e2f" opacity="0.9">
  <animateMotion begin="-8.519151437133734s" dur="9.5s" repeatCount="indefinite">
    <mpath xlink:href="#path21"></mpath>
  </animateMotion>
</circle><path id="path22" d="M 1179.4556802534373 84.3595724832398
c 0 24.560640508032627 -6.009518422178195 7.054652060817882 -13.064170482996078 7.054652060817882
S 1153.327339287445 108.92021299127242 1153.327339287445 84.3595724832398
s 6.009518422178195 -7.054652060817882 13.064170482996078 -7.054652060817882
S 1179.4556802534373 59.798931975207175 1179.4556802534373 84.3595724832398
z" fill="none" stroke="none"></path>
<circle cx="0" cy="0" r="0.7697769510774444" fill="#6d82b1" opacity="0.9">
  <animateMotion begin="-4.367178167747769s" dur="9.5s" repeatCount="indefinite">
    <mpath xlink:href="#path22"></mpath>
  </animateMotion>
</circle><path id="path23" d="M 204.20819138799635 685.0737222129247
c 0 33.51634235240275 -8.200807171332587 9.627034505477386 -17.82784167680997 9.627034505477386
S 168.5525080343764 718.5900645653275 168.5525080343764 685.0737222129247
s 8.200807171332587 -9.627034505477386 17.82784167680997 -9.627034505477386
S 204.20819138799635 651.557379860522 204.20819138799635 685.0737222129247
z" fill="none" stroke="none"></path>
<circle cx="0" cy="0" r="1.278473161680246" fill="#2a3e83" opacity="0.9">
  <animateMotion begin="-4.288120174301401s" dur="9.5s" repeatCount="indefinite">
    <mpath xlink:href="#path23"></mpath>
  </animateMotion>
</circle><path id="path24" d="M 1326.7817177152494 518.140223933284
c 0 27.649547559433767 -6.765314828372091 7.941891320262891 -14.707206148634981 7.941891320262891
S 1297.3673054179797 545.7897714927178 1297.3673054179797 518.140223933284
s 6.765314828372091 -7.941891320262891 14.707206148634981 -7.941891320262891
S 1326.7817177152494 490.49067637385025 1326.7817177152494 518.140223933284
z" fill="none" stroke="none"></path>
<circle cx="0" cy="0" r="0.7828548199228265" fill="#6d82b1" opacity="0.9">
  <animateMotion begin="-0.7788474936321593s" dur="9.5s" repeatCount="indefinite">
    <mpath xlink:href="#path24"></mpath>
  </animateMotion>
</circle><path id="path25" d="M 1127.623765916559 589.6818688307405
c 0 29.515328169675247 -7.221835615984369 8.477807027459912 -15.69964264344428 8.477807027459912
S 1096.2244806296703 619.1971970004158 1096.2244806296703 589.6818688307405
s 7.221835615984369 -8.477807027459912 15.69964264344428 -8.477807027459912
S 1127.623765916559 560.1665406610653 1127.623765916559 589.6818688307405
z" fill="none" stroke="none"></path>
<circle cx="0" cy="0" r="1.2273173336175138" fill="#303f63" opacity="0.9">
  <animateMotion begin="-4.913073274024204s" dur="9.5s" repeatCount="indefinite">
    <mpath xlink:href="#path25"></mpath>
  </animateMotion>
</circle><path id="path26" d="M 1505.6779006433362 716.9876745125579
c 0 35.43836996807064 -8.67109052410239 10.179106267424546 -18.850196791526937 10.179106267424546
S 1467.9775070602823 752.4260444806285 1467.9775070602823 716.9876745125579
s 8.67109052410239 -10.179106267424546 18.850196791526937 -10.179106267424546
S 1505.6779006433362 681.5493045444872 1505.6779006433362 716.9876745125579
z" fill="none" stroke="none"></path>
<circle cx="0" cy="0" r="1.3836098836312938" fill="#2a3e83" opacity="0.9">
  <animateMotion begin="-8.316340153197746s" dur="9.5s" repeatCount="indefinite">
    <mpath xlink:href="#path26"></mpath>
  </animateMotion>
</circle><path id="path27" d="M 1297.369816676969 101.73064924342539
c 0 30.03294899991046 -7.348487521254686 8.626485351038111 -15.974972872292796 8.626485351038111
S 1265.4198709323837 131.76359824333585 1265.4198709323837 101.73064924342539
s 7.348487521254686 -8.626485351038111 15.974972872292796 -8.626485351038111
S 1297.369816676969 71.69770024351493 1297.369816676969 101.73064924342539
z" fill="none" stroke="none"></path>
<circle cx="0" cy="0" r="1.4766239397818515" fill="#303f63" opacity="0.9">
  <animateMotion begin="-9.324190592378601s" dur="9.5s" repeatCount="indefinite">
    <mpath xlink:href="#path27"></mpath>
  </animateMotion>
</circle><path id="path28" d="M 122.14640145046579 824.527118814498
c 0 33.70095575379111 -8.24597853550208 9.68006175906766 -17.92604029456974 9.68006175906766
S 86.2943208613263 858.2280745682891 86.2943208613263 824.527118814498
s 8.24597853550208 -9.68006175906766 17.92604029456974 -9.68006175906766
S 122.14640145046579 790.8261630607068 122.14640145046579 824.527118814498
z" fill="none" stroke="none"></path>
<circle cx="0" cy="0" r="0.9800241174402935" fill="#dad69f" opacity="0.9">
  <animateMotion begin="-1.6561349467298538s" dur="9.5s" repeatCount="indefinite">
    <mpath xlink:href="#path28"></mpath>
  </animateMotion>
</circle><path id="path29" d="M 694.5937389145223 290.13958931643873
c 0 21.572408775673324 -5.278355338728579 6.196330180246593 -11.474685518975171 6.196330180246593
S 671.6443678765719 311.711998092112 671.6443678765719 290.13958931643873
s 5.278355338728579 -6.196330180246593 11.474685518975171 -6.196330180246593
S 694.5937389145223 268.56718054076543 694.5937389145223 290.13958931643873
z" fill="none" stroke="none"></path>
<circle cx="0" cy="0" r="1.4391398081794045" fill="#303f63" opacity="0.9">
  <animateMotion begin="-0.7626311870998703s" dur="9.5s" repeatCount="indefinite">
    <mpath xlink:href="#path29"></mpath>
  </animateMotion>
</circle><path id="path30" d="M 659.1641360854337 59.66451936114309
c 0 27.412621304423133 -6.707343510656723 7.873838034249198 -14.58118154490592 7.873838034249198
S 630.0017729956219 87.07714066556622 630.0017729956219 59.66451936114309
s 6.707343510656723 -7.873838034249198 14.58118154490592 -7.873838034249198
S 659.1641360854337 32.25189805671996 659.1641360854337 59.66451936114309
z" fill="none" stroke="none"></path>
<circle cx="0" cy="0" r="0.8752364411389737" fill="#303f63" opacity="0.9">
  <animateMotion begin="-0.025070292809242334s" dur="9.5s" repeatCount="indefinite">
    <mpath xlink:href="#path30"></mpath>
  </animateMotion>
</circle><path id="path31" d="M 802.7243656390168 812.3654388790593
c 0 37.216310807349814 -9.106118601798359 10.689791402111117 -19.795910003909476 10.689791402111117
S 763.1325456311978 849.5817496864091 763.1325456311978 812.3654388790593
s 9.106118601798359 -10.689791402111117 19.795910003909476 -10.689791402111117
S 802.7243656390168 775.1491280717095 802.7243656390168 812.3654388790593
z" fill="none" stroke="none"></path>
<circle cx="0" cy="0" r="0.8484924796527571" fill="#2a3e83" opacity="0.9">
  <animateMotion begin="-3.146656907494062s" dur="9.5s" repeatCount="indefinite">
    <mpath xlink:href="#path31"></mpath>
  </animateMotion>
</circle><path id="path32" d="M 1573.7688162092202 917.1267696367685
c 0 30.208015564093095 -7.391322957171714 8.676770427984188 -16.0680933851559 8.676770427984188
S 1541.6326294389085 947.3347852008616 1541.6326294389085 917.1267696367685
s 7.391322957171714 -8.676770427984188 16.0680933851559 -8.676770427984188
S 1573.7688162092202 886.9187540726754 1573.7688162092202 917.1267696367685
z" fill="none" stroke="none"></path>
<circle cx="0" cy="0" r="0.9839081154387714" fill="#dad69f" opacity="0.9">
  <animateMotion begin="-3.790786273639136s" dur="9.5s" repeatCount="indefinite">
    <mpath xlink:href="#path32"></mpath>
  </animateMotion>
</circle><path id="path33" d="M 1482.1064669960904 657.4892780768299
c 0 30.55626384884635 -7.476532643866659 8.776799190626079 -16.25333183449274 8.776799190626079
S 1449.599803327105 688.0455419256763 1449.599803327105 657.4892780768299
s 7.476532643866659 -8.776799190626079 16.25333183449274 -8.776799190626079
S 1482.1064669960904 626.9330142279836 1482.1064669960904 657.4892780768299
z" fill="none" stroke="none"></path>
<circle cx="0" cy="0" r="1.3444391216028468" fill="#a3945d" opacity="0.9">
  <animateMotion begin="-7.407420718263973s" dur="9.5s" repeatCount="indefinite">
    <mpath xlink:href="#path33"></mpath>
  </animateMotion>
</circle><path id="path34" d="M 1277.1687136644057 136.2101245434511
c 0 29.318466140623237 -7.1736672471737695 8.42126155103008 -15.59492879820385 8.42126155103008
S 1245.9788560679979 165.52859068407432 1245.9788560679979 136.2101245434511
s 7.1736672471737695 -8.42126155103008 15.59492879820385 -8.42126155103008
S 1277.1687136644057 106.89165840282786 1277.1687136644057 136.2101245434511
z" fill="none" stroke="none"></path>
<circle cx="0" cy="0" r="1.3495057201649265" fill="#feeb54" opacity="0.9">
  <animateMotion begin="-4.209667194559318s" dur="9.5s" repeatCount="indefinite">
    <mpath xlink:href="#path34"></mpath>
  </animateMotion>
</circle><path id="path35" d="M 368.73843094595753 476.5442263392739
c 0 23.27967909489829 -5.696091693432559 6.686716335768658 -12.382808029201218 6.686716335768658
S 343.9728148875551 499.8239054341722 343.9728148875551 476.5442263392739
s 5.696091693432559 -6.686716335768658 12.382808029201218 -6.686716335768658
S 368.73843094595753 453.2645472443756 368.73843094595753 476.5442263392739
z" fill="none" stroke="none"></path>
<circle cx="0" cy="0" r="0.9384196637125974" fill="#a3945d" opacity="0.9">
  <animateMotion begin="-6.480737619685271s" dur="9.5s" repeatCount="indefinite">
    <mpath xlink:href="#path35"></mpath>
  </animateMotion>
</circle><path id="path36" d="M 1418.4570274746784 389.43323197011483
c 0 22.718903095561902 -5.558880544658763 6.525642378512461 -12.084522923171225 6.525642378512461
S 1394.2879816283357 412.15213506567676 1394.2879816283357 389.43323197011483
s 5.558880544658763 -6.525642378512461 12.084522923171225 -6.525642378512461
S 1418.4570274746784 366.7143288745529 1418.4570274746784 389.43323197011483
z" fill="none" stroke="none"></path>
<circle cx="0" cy="0" r="1.3748939274932004" fill="#151e2f" opacity="0.9">
  <animateMotion begin="-6.32028949410007s" dur="9.5s" repeatCount="indefinite">
    <mpath xlink:href="#path36"></mpath>
  </animateMotion>
</circle><path id="path37" d="M 403.61418836691865 265.04805061675677
c 0 28.441467125651865 -6.959082381808434 8.169357578644686 -15.12843996045312 8.169357578644686
S 373.3573084460124 293.4895177424086 373.3573084460124 265.04805061675677
s 6.959082381808434 -8.169357578644686 15.12843996045312 -8.169357578644686
S 403.61418836691865 236.6065834911049 403.61418836691865 265.04805061675677
z" fill="none" stroke="none"></path>
<circle cx="0" cy="0" r="1.0686638959608332" fill="#feeb54" opacity="0.9">
  <animateMotion begin="-7.575659797534307s" dur="9.5s" repeatCount="indefinite">
    <mpath xlink:href="#path37"></mpath>
  </animateMotion>
</circle><path id="path38" d="M 892.248697872827 377.3127374991796
c 0 19.442233215203423 -4.757142169677432 5.584471242664813 -10.341613412342245 5.584471242664813
S 871.5654710481426 396.75497071438303 871.5654710481426 377.3127374991796
s 4.757142169677432 -5.584471242664813 10.341613412342245 -5.584471242664813
S 892.248697872827 357.8705042839762 892.248697872827 377.3127374991796
z" fill="none" stroke="none"></path>
<circle cx="0" cy="0" r="0.8010561958184277" fill="#151e2f" opacity="0.9">
  <animateMotion begin="-1.7888582008344132s" dur="9.5s" repeatCount="indefinite">
    <mpath xlink:href="#path38"></mpath>
  </animateMotion>
</circle><path id="path39" d="M 1561.2535943353087 520.3842910202864
c 0 37.23512616008676 -9.1107223583191 10.695195811939815 -19.805918170258913 10.695195811939815
S 1521.6417579947906 557.6194171803731 1521.6417579947906 520.3842910202864
s 9.1107223583191 -10.695195811939815 19.805918170258913 -10.695195811939815
S 1561.2535943353087 483.1491648601996 1561.2535943353087 520.3842910202864
z" fill="none" stroke="none"></path>
<circle cx="0" cy="0" r="1.1370976279641876" fill="#303f63" opacity="0.9">
  <animateMotion begin="-3.3605650139720327s" dur="9.5s" repeatCount="indefinite">
    <mpath xlink:href="#path39"></mpath>
  </animateMotion>
</circle><path id="path40" d="M 1334.8356447422636 514.8866916137277
c 0 22.628042846453805 -5.536648781579123 6.499544221853753 -12.036193003432876 6.499544221853753
S 1310.763258735398 537.5147344601816 1310.763258735398 514.8866916137277
s 5.536648781579123 -6.499544221853753 12.036193003432876 -6.499544221853753
S 1334.8356447422636 492.25864876727394 1334.8356447422636 514.8866916137277
z" fill="none" stroke="none"></path>
<circle cx="0" cy="0" r="0.8141262597653107" fill="#151e2f" opacity="0.9">
  <animateMotion begin="-2.677313714092926s" dur="9.5s" repeatCount="indefinite">
    <mpath xlink:href="#path40"></mpath>
  </animateMotion>
</circle><path id="path41" d="M 1203.82508951621 388.11936516686103
c 0 35.34214911708351 -8.647547124392773 10.151468363417605 -18.79901548781038 10.151468363417605
S 1166.227058540589 423.46151428394455 1166.227058540589 388.11936516686103
s 8.647547124392773 -10.151468363417605 18.79901548781038 -10.151468363417605
S 1203.82508951621 352.7772160497775 1203.82508951621 388.11936516686103
z" fill="none" stroke="none"></path>
<circle cx="0" cy="0" r="0.83001952009642" fill="#2a3e83" opacity="0.9">
  <animateMotion begin="-8.89438162194937s" dur="9.5s" repeatCount="indefinite">
    <mpath xlink:href="#path41"></mpath>
  </animateMotion>
</circle><path id="path42" d="M 653.4524326965483 863.9099502249152
c 0 34.97516580176914 -8.557753334475427 10.046058262210284 -18.60381159668571 10.046058262210284
S 616.244809503177 898.8851160266843 616.244809503177 863.9099502249152
s 8.557753334475427 -10.046058262210284 18.60381159668571 -10.046058262210284
S 653.4524326965483 828.9347844231461 653.4524326965483 863.9099502249152
z" fill="none" stroke="none"></path>
<circle cx="0" cy="0" r="0.8533793948562141" fill="#2a3e83" opacity="0.9">
  <animateMotion begin="-8.030873296093775s" dur="9.5s" repeatCount="indefinite">
    <mpath xlink:href="#path42"></mpath>
  </animateMotion>
</circle><path id="path43" d="M 139.6287337563781 142.65317858787387
c 0 24.18100410525012 -5.9166286640505605 6.945607562146312 -12.862236226196872 6.945607562146312
S 113.90426130398436 166.83418269312398 113.90426130398436 142.65317858787387
s 5.9166286640505605 -6.945607562146312 12.862236226196872 -6.945607562146312
S 139.6287337563781 118.47217448262374 139.6287337563781 142.65317858787387
z" fill="none" stroke="none"></path>
<circle cx="0" cy="0" r="1.4684386624382015" fill="#6d82b1" opacity="0.9">
  <animateMotion begin="-3.3869817952296106s" dur="9.5s" repeatCount="indefinite">
    <mpath xlink:href="#path43"></mpath>
  </animateMotion>
</circle><path id="path44" d="M 618.2620887176197 45.45584548854013
c 0 32.669574589562494 -7.993619314467419 9.383813977853057 -17.377433292320475 9.383813977853057
S 583.5072221329788 78.12542007810262 583.5072221329788 45.45584548854013
s 7.993619314467419 -9.383813977853057 17.377433292320475 -9.383813977853057
S 618.2620887176197 12.786270898977634 618.2620887176197 45.45584548854013
z" fill="none" stroke="none"></path>
<circle cx="0" cy="0" r="0.925445227044442" fill="#151e2f" opacity="0.9">
  <animateMotion begin="-2.0919916272771957s" dur="9.5s" repeatCount="indefinite">
    <mpath xlink:href="#path44"></mpath>
  </animateMotion>
</circle><path id="path45" d="M 191.06406571734163 656.6124158291593
c 0 27.252541124871005 -6.668174956085458 7.827857557143799 -14.496032513229258 7.827857557143799
S 162.0720006908831 683.8649569540303 162.0720006908831 656.6124158291593
s 6.668174956085458 -7.827857557143799 14.496032513229258 -7.827857557143799
S 191.06406571734163 629.3598747042884 191.06406571734163 656.6124158291593
z" fill="none" stroke="none"></path>
<circle cx="0" cy="0" r="0.8955091789930005" fill="#6d82b1" opacity="0.9">
  <animateMotion begin="-8.05366470714042s" dur="9.5s" repeatCount="indefinite">
    <mpath xlink:href="#path45"></mpath>
  </animateMotion>
</circle><path id="path46" d="M 1349.1068556622765 680.1674999260524
c 0 21.6302201425968 -5.292500673188579 6.212935572873549 -11.505436246062128 6.212935572873549
S 1326.0959831701523 701.7977200686493 1326.0959831701523 680.1674999260524
s 5.292500673188579 -6.212935572873549 11.505436246062128 -6.212935572873549
S 1349.1068556622765 658.5372797834556 1349.1068556622765 680.1674999260524
z" fill="none" stroke="none"></path>
<circle cx="0" cy="0" r="1.161536803655247" fill="#a3945d" opacity="0.9">
  <animateMotion begin="-7.674381140027763s" dur="9.5s" repeatCount="indefinite">
    <mpath xlink:href="#path46"></mpath>
  </animateMotion>
</circle><path id="path47" d="M 1374.6241649539916 925.7349309866075
c 0 31.766478698364118 -7.772649043216751 9.12441409421097 -16.897063137427722 9.12441409421097
S 1340.8300386791361 957.5014096849717 1340.8300386791361 925.7349309866075
s 7.772649043216751 -9.12441409421097 16.897063137427722 -9.12441409421097
S 1374.6241649539916 893.9684522882434 1374.6241649539916 925.7349309866075
z" fill="none" stroke="none"></path>
<circle cx="0" cy="0" r="0.8773253174576474" fill="#151e2f" opacity="0.9">
  <animateMotion begin="-2.6394077400355513s" dur="9.5s" repeatCount="indefinite">
    <mpath xlink:href="#path47"></mpath>
  </animateMotion>
</circle><path id="path48" d="M 654.7623122999731 110.01431909487842
c 0 21.255902109208968 -5.200912218210704 6.105418690943002 -11.306330909153706 6.105418690943002
S 632.1496504816656 131.2702212040874 632.1496504816656 110.01431909487842
s 5.200912218210704 -6.105418690943002 11.306330909153706 -6.105418690943002
S 654.7623122999731 88.75841698566944 654.7623122999731 110.01431909487842
z" fill="none" stroke="none"></path>
<circle cx="0" cy="0" r="1.1221403958751126" fill="#dad69f" opacity="0.9">
  <animateMotion begin="-6.751791881403278s" dur="9.5s" repeatCount="indefinite">
    <mpath xlink:href="#path48"></mpath>
  </animateMotion>
</circle><path id="path49" d="M 706.1639881224077 588.2263243562112
c 0 34.012111081314444 -8.322112285853533 9.769436161654149 -18.09154844750768 9.769436161654149
S 669.9808912273924 622.2384354375256 669.9808912273924 588.2263243562112
s 8.322112285853533 -9.769436161654149 18.09154844750768 -9.769436161654149
S 706.1639881224077 554.2142132748968 706.1639881224077 588.2263243562112
z" fill="none" stroke="none"></path>
<circle cx="0" cy="0" r="0.7782398579689299" fill="#151e2f" opacity="0.9">
  <animateMotion begin="-0.6173168977182286s" dur="9.5s" repeatCount="indefinite">
    <mpath xlink:href="#path49"></mpath>
  </animateMotion>
</circle><path id="path50" d="M 1607.2692416125046 826.4633063100166
c 0 24.632528853998565 -6.027108123850712 7.075300841042141 -13.102408964892852 7.075300841042141
S 1581.0644236827188 851.0958351640152 1581.0644236827188 826.4633063100166
s 6.027108123850712 -7.075300841042141 13.102408964892852 -7.075300841042141
S 1607.2692416125046 801.830777456018 1607.2692416125046 826.4633063100166
z" fill="none" stroke="none"></path>
<circle cx="0" cy="0" r="0.9768324103253665" fill="#303f63" opacity="0.9">
  <animateMotion begin="-9.423843513570096s" dur="9.5s" repeatCount="indefinite">
    <mpath xlink:href="#path50"></mpath>
  </animateMotion>
</circle><path id="path51" d="M 257.3748737236366 363.75853365761657
c 0 21.708861670975267 -5.311742749281182 6.235524096982258 -11.54726684626344 6.235524096982258
S 234.2803400311097 385.4673953285918 234.2803400311097 363.75853365761657
s 5.311742749281182 -6.235524096982258 11.54726684626344 -6.235524096982258
S 257.3748737236366 342.04967198664133 257.3748737236366 363.75853365761657
z" fill="none" stroke="none"></path>
<circle cx="0" cy="0" r="0.9005667455574773" fill="#dad69f" opacity="0.9">
  <animateMotion begin="-8.800566961290484s" dur="9.5s" repeatCount="indefinite">
    <mpath xlink:href="#path51"></mpath>
  </animateMotion>
</circle><path id="path52" d="M 711.1053044788281 290.95498785452816
c 0 35.989258485536304 -8.80588239539718 10.337340203292344 -19.143222598689526 10.337340203292344
S 672.8188592814491 326.94424634006447 672.8188592814491 290.95498785452816
s 8.80588239539718 -10.337340203292344 19.143222598689526 -10.337340203292344
S 711.1053044788281 254.96572936899184 711.1053044788281 290.95498785452816
z" fill="none" stroke="none"></path>
<circle cx="0" cy="0" r="1.0427243169080067" fill="#dad69f" opacity="0.9">
  <animateMotion begin="-3.535285522663063s" dur="9.5s" repeatCount="indefinite">
    <mpath xlink:href="#path52"></mpath>
  </animateMotion>
</circle><path id="path53" d="M 1258.9220959779307 611.0354444635791
c 0 29.272683276203075 -7.162465056943305 8.408111153803011 -15.570576210746317 8.408111153803011
S 1227.780943556438 640.3081277397822 1227.780943556438 611.0354444635791
s 7.162465056943305 -8.408111153803011 15.570576210746317 -8.408111153803011
S 1258.9220959779307 581.762761187376 1258.9220959779307 611.0354444635791
z" fill="none" stroke="none"></path>
<circle cx="0" cy="0" r="1.406074711587237" fill="#6d82b1" opacity="0.9">
  <animateMotion begin="-3.464214014106397s" dur="9.5s" repeatCount="indefinite">
    <mpath xlink:href="#path53"></mpath>
  </animateMotion>
</circle><path id="path54" d="M 1489.9804521779045 441.2673002563076
c 0 22.491796521255328 -5.50331191477524 6.460409639083977 -11.963721553859216 6.460409639083977
S 1466.0530090701861 463.7590967775629 1466.0530090701861 441.2673002563076
s 5.50331191477524 -6.460409639083977 11.963721553859216 -6.460409639083977
S 1489.9804521779045 418.77550373505227 1489.9804521779045 441.2673002563076
z" fill="none" stroke="none"></path>
<circle cx="0" cy="0" r="0.7572470924506596" fill="#151e2f" opacity="0.9">
  <animateMotion begin="-1.525155451841916s" dur="9.5s" repeatCount="indefinite">
    <mpath xlink:href="#path54"></mpath>
  </animateMotion>
</circle><path id="path55" d="M 527.5283077461796 69.73079018605462
c 0 19.926766245268528 -4.875698123842299 5.72364562364096 -10.599343747483259 5.72364562364096
S 506.32962025121316 89.65755643132314 506.32962025121316 69.73079018605462
s 4.875698123842299 -5.72364562364096 10.599343747483259 -5.72364562364096
S 527.5283077461796 49.804023940786095 527.5283077461796 69.73079018605462
z" fill="none" stroke="none"></path>
<circle cx="0" cy="0" r="0.8728793292973033" fill="#2a3e83" opacity="0.9">
  <animateMotion begin="-7.292123070134776s" dur="9.5s" repeatCount="indefinite">
    <mpath xlink:href="#path55"></mpath>
  </animateMotion>
</circle><path id="path56" d="M 1653.3540116664797 865.2103404122154
c 0 28.919740487521448 -7.076106715031843 8.306733969819991 -15.382840684851832 8.306733969819991
S 1622.5883302967761 894.1300808997369 1622.5883302967761 865.2103404122154
s 7.076106715031843 -8.306733969819991 15.382840684851832 -8.306733969819991
S 1653.3540116664797 836.2905999246939 1653.3540116664797 865.2103404122154
z" fill="none" stroke="none"></path>
<circle cx="0" cy="0" r="1.448130353626789" fill="#dad69f" opacity="0.9">
  <animateMotion begin="-8.528128981116755s" dur="9.5s" repeatCount="indefinite">
    <mpath xlink:href="#path56"></mpath>
  </animateMotion>
</circle><path id="path57" d="M 1264.0489302492806 842.1669724880468
c 0 36.4290592586225 -8.913493222854441 10.463665957263911 -19.377159180118355 10.463665957263911
S 1225.294611889044 878.5960317466693 1225.294611889044 842.1669724880468
s 8.913493222854441 -10.463665957263911 19.377159180118355 -10.463665957263911
S 1264.0489302492806 805.7379132294243 1264.0489302492806 842.1669724880468
z" fill="none" stroke="none"></path>
<circle cx="0" cy="0" r="1.4934396810137522" fill="#6d82b1" opacity="0.9">
  <animateMotion begin="-3.8063124161387254s" dur="9.5s" repeatCount="indefinite">
    <mpath xlink:href="#path57"></mpath>
  </animateMotion>
</circle><path id="path58" d="M 1081.6452483639198 613.8346034072573
c 0 25.349211961178497 -6.202466756458568 7.281156627147015 -13.483623383605583 7.281156627147015
S 1054.6780015967086 639.1838153684358 1054.6780015967086 613.8346034072573
s 6.202466756458568 -7.281156627147015 13.483623383605583 -7.281156627147015
S 1081.6452483639198 588.4853914460788 1081.6452483639198 613.8346034072573
z" fill="none" stroke="none"></path>
<circle cx="0" cy="0" r="0.9960650912397473" fill="#dad69f" opacity="0.9">
  <animateMotion begin="-1.5185659620995557s" dur="9.5s" repeatCount="indefinite">
    <mpath xlink:href="#path58"></mpath>
  </animateMotion>
</circle><path id="path59" d="M 1799.7893917178098 910.8781865797741
c 0 19.661212063219754 -4.810722100575045 5.647369422414185 -10.45809152298923 5.647369422414185
S 1778.8732086718314 930.5393986429939 1778.8732086718314 910.8781865797741
s 4.810722100575045 -5.647369422414185 10.45809152298923 -5.647369422414185
S 1799.7893917178098 891.2169745165544 1799.7893917178098 910.8781865797741
z" fill="none" stroke="none"></path>
<circle cx="0" cy="0" r="1.4474859125223924" fill="#6d82b1" opacity="0.9">
  <animateMotion begin="-8.265938614961794s" dur="9.5s" repeatCount="indefinite">
    <mpath xlink:href="#path59"></mpath>
  </animateMotion>
</circle><path id="path60" d="M 504.0136550458347 619.4389615752341
c 0 28.975753564090766 -7.0898120422775275 8.322822832238836 -15.412634874516364 8.322822832238836
S 473.188385296802 648.4147151393248 473.188385296802 619.4389615752341
s 7.0898120422775275 -8.322822832238836 15.412634874516364 -8.322822832238836
S 504.0136550458347 590.4632080111434 504.0136550458347 619.4389615752341
z" fill="none" stroke="none"></path>
<circle cx="0" cy="0" r="1.393461942805978" fill="#a3945d" opacity="0.9">
  <animateMotion begin="-1.529696959125061s" dur="9.5s" repeatCount="indefinite">
    <mpath xlink:href="#path60"></mpath>
  </animateMotion>
</circle><path id="path61" d="M 764.3123100255362 766.4300499232727
c 0 35.279680225241016 -8.632262182771736 10.133525171079866 -18.7657873538516 10.133525171079866
S 726.7807353178331 801.7097301485137 726.7807353178331 766.4300499232727
s 8.632262182771736 -10.133525171079866 18.7657873538516 -10.133525171079866
S 764.3123100255362 731.1503696980317 764.3123100255362 766.4300499232727
z" fill="none" stroke="none"></path>
<circle cx="0" cy="0" r="1.4990600583046187" fill="#feeb54" opacity="0.9">
  <animateMotion begin="-0.012922463858056288s" dur="9.5s" repeatCount="indefinite">
    <mpath xlink:href="#path61"></mpath>
  </animateMotion>
</circle><path id="path62" d="M 1687.1547836737554 43.18857205010836
c 0 28.926818358371346 -7.077838534495116 8.308766975276876 -15.386605509771991 8.308766975276876
S 1656.3815726542116 72.11539040847971 1656.3815726542116 43.18857205010836
s 7.077838534495116 -8.308766975276876 15.386605509771991 -8.308766975276876
S 1687.1547836737554 14.261753691737017 1687.1547836737554 43.18857205010836
z" fill="none" stroke="none"></path>
<circle cx="0" cy="0" r="0.9492145617692361" fill="#303f63" opacity="0.9">
  <animateMotion begin="-3.8323580191503592s" dur="9.5s" repeatCount="indefinite">
    <mpath xlink:href="#path62"></mpath>
  </animateMotion>
</circle><path id="path63" d="M 1043.2192926430132 491.92172281368124
c 0 24.524522182748203 -6.0006809596086015 7.044277648236186 -13.044958607844787 7.044277648236186
S 1017.1293754273236 516.4462449964294 1017.1293754273236 491.92172281368124
s 6.0006809596086015 -7.044277648236186 13.044958607844787 -7.044277648236186
S 1043.2192926430132 467.397200630933 1043.2192926430132 491.92172281368124
z" fill="none" stroke="none"></path>
<circle cx="0" cy="0" r="1.029142861151549" fill="#feeb54" opacity="0.9">
  <animateMotion begin="-3.1150055577692193s" dur="9.5s" repeatCount="indefinite">
    <mpath xlink:href="#path63"></mpath>
  </animateMotion>
</circle><path id="path64" d="M 1394.7758221967233 509.07865576673646
c 0 22.19876798448537 -5.4316134430123775 6.376241867884096 -11.807855310896473 6.376241867884096
S 1371.1601115749304 531.2774237512218 1371.1601115749304 509.07865576673646
s 5.4316134430123775 -6.376241867884096 11.807855310896473 -6.376241867884096
S 1394.7758221967233 486.8798877822511 1394.7758221967233 509.07865576673646
z" fill="none" stroke="none"></path>
<circle cx="0" cy="0" r="0.828225385627658" fill="#6d82b1" opacity="0.9">
  <animateMotion begin="-3.784525834224535s" dur="9.5s" repeatCount="indefinite">
    <mpath xlink:href="#path64"></mpath>
  </animateMotion>
</circle><path id="path65" d="M 386.37604025271287 436.0332586732776
c 0 27.804692969313813 -6.803275939300188 7.986454363526308 -14.789730302826495 7.986454363526308
S 356.79657964705984 463.8379516425914 356.79657964705984 436.0332586732776
s 6.803275939300188 -7.986454363526308 14.789730302826495 -7.986454363526308
S 386.37604025271287 408.2285657039638 386.37604025271287 436.0332586732776
z" fill="none" stroke="none"></path>
<circle cx="0" cy="0" r="1.1915363075133936" fill="#a3945d" opacity="0.9">
  <animateMotion begin="-1.4636339149693343s" dur="9.5s" repeatCount="indefinite">
    <mpath xlink:href="#path65"></mpath>
  </animateMotion>
</circle><path id="path66" d="M 515.1107616033336 918.8563406605581
c 0 19.292077544612397 -4.720401952405161 5.541341422388667 -10.261743374793827 5.541341422388667
S 494.58727485374595 938.1484182051705 494.58727485374595 918.8563406605581
s 4.720401952405161 -5.541341422388667 10.261743374793827 -5.541341422388667
S 515.1107616033336 899.5642631159457 515.1107616033336 918.8563406605581
z" fill="none" stroke="none"></path>
<circle cx="0" cy="0" r="1.0944699950253554" fill="#2a3e83" opacity="0.9">
  <animateMotion begin="-0.21832186483093596s" dur="9.5s" repeatCount="indefinite">
    <mpath xlink:href="#path66"></mpath>
  </animateMotion>
</circle><path id="path67" d="M 171.07625595951015 317.41582542011093
c 0 31.240230012966883 -7.6438860670025335 8.97325755691602 -16.617143623918555 8.97325755691602
S 137.84196871167302 348.6560554330778 137.84196871167302 317.41582542011093
s 7.6438860670025335 -8.97325755691602 16.617143623918555 -8.97325755691602
S 171.07625595951015 286.17559540714404 171.07625595951015 317.41582542011093
z" fill="none" stroke="none"></path>
<circle cx="0" cy="0" r="1.0274728332607876" fill="#feeb54" opacity="0.9">
  <animateMotion begin="-2.7347338010967186s" dur="9.5s" repeatCount="indefinite">
    <mpath xlink:href="#path67"></mpath>
  </animateMotion>
</circle><path id="path68" d="M 879.6924095398526 343.85121405994795
c 0 28.520908719160506 -6.978520218517995 8.19217590869504 -15.170696127213034 8.19217590869504
S 849.3510172854265 372.37212277910845 849.3510172854265 343.85121405994795
s 6.978520218517995 -8.19217590869504 15.170696127213034 -8.19217590869504
S 879.6924095398526 315.33030534078745 879.6924095398526 343.85121405994795
z" fill="none" stroke="none"></path>
<circle cx="0" cy="0" r="0.8374561240913558" fill="#feeb54" opacity="0.9">
  <animateMotion begin="-2.764657948051995s" dur="9.5s" repeatCount="indefinite">
    <mpath xlink:href="#path68"></mpath>
  </animateMotion>
</circle><path id="path69" d="M 1331.9637151637537 825.8651831259067
c 0 19.762409630656744 -4.8354832075011185 5.676436808805661 -10.51192001630678 5.676436808805661
S 1310.9398751311403 845.6275927565634 1310.9398751311403 825.8651831259067
s 4.8354832075011185 -5.676436808805661 10.51192001630678 -5.676436808805661
S 1331.9637151637537 806.10277349525 1331.9637151637537 825.8651831259067
z" fill="none" stroke="none"></path>
<circle cx="0" cy="0" r="1.032524172518807" fill="#feeb54" opacity="0.9">
  <animateMotion begin="-7.79021650394202s" dur="9.5s" repeatCount="indefinite">
    <mpath xlink:href="#path69"></mpath>
  </animateMotion>
</circle><path id="path70" d="M 469.2418256719288 871.219890355893
c 0 29.748681793139074 -7.278932779172326 8.544834132071863 -15.823766911244189 8.544834132071863
S 437.59429184944037 900.9685721490321 437.59429184944037 871.219890355893
s 7.278932779172326 -8.544834132071863 15.823766911244189 -8.544834132071863
S 469.2418256719288 841.4712085627539 469.2418256719288 871.219890355893
z" fill="none" stroke="none"></path>
<circle cx="0" cy="0" r="1.1333439000992955" fill="#dad69f" opacity="0.9">
  <animateMotion begin="-0.004560343105297071s" dur="9.5s" repeatCount="indefinite">
    <mpath xlink:href="#path70"></mpath>
  </animateMotion>
</circle><path id="path71" d="M 290.3808467421995 110.61196644756804
c 0 29.00055599891575 -7.09588072313896 8.32994693585878 -15.42582765899774 8.32994693585878
S 259.52919142420404 139.61252244648378 259.52919142420404 110.61196644756804
s 7.09588072313896 -8.32994693585878 15.42582765899774 -8.32994693585878
S 290.3808467421995 81.6114104486523 290.3808467421995 110.61196644756804
z" fill="none" stroke="none"></path>
<circle cx="0" cy="0" r="1.4794173754518607" fill="#dad69f" opacity="0.9">
  <animateMotion begin="-7.436751302552259s" dur="9.5s" repeatCount="indefinite">
    <mpath xlink:href="#path71"></mpath>
  </animateMotion>
</circle><path id="path72" d="M 96.72422199381873 363.67043364962404
c 0 19.05213263719408 -4.661692028249615 5.4724210766408525 -10.134113104890467 5.4724210766408525
S 76.45599578403781 382.7225662868181 76.45599578403781 363.67043364962404
s 4.661692028249615 -5.4724210766408525 10.134113104890467 -5.4724210766408525
S 96.72422199381873 344.61830101243 96.72422199381873 363.67043364962404
z" fill="none" stroke="none"></path>
<circle cx="0" cy="0" r="1.2639421172770169" fill="#feeb54" opacity="0.9">
  <animateMotion begin="-3.118097162442215s" dur="9.5s" repeatCount="indefinite">
    <mpath xlink:href="#path72"></mpath>
  </animateMotion>
</circle><path id="path73" d="M 610.1035466780346 676.3971935200572
c 0 32.25972704410066 -7.8933374682373945 9.266091810539551 -17.159429278776944 9.266091810539551
S 575.7846881204806 708.6569205641579 575.7846881204806 676.3971935200572
s 7.8933374682373945 -9.266091810539551 17.159429278776944 -9.266091810539551
S 610.1035466780346 644.1374664759564 610.1035466780346 676.3971935200572
z" fill="none" stroke="none"></path>
<circle cx="0" cy="0" r="1.3992140909191377" fill="#feeb54" opacity="0.9">
  <animateMotion begin="-6.217397143392341s" dur="9.5s" repeatCount="indefinite">
    <mpath xlink:href="#path73"></mpath>
  </animateMotion>
</circle><path id="path74" d="M 268.2013325936182 422.94669259668876
c 0 29.40057444706568 -7.193757577473517 8.444845851816737 -15.638603429290255 8.444845851816737
S 236.92412573503768 452.3472670437544 236.92412573503768 422.94669259668876
s 7.193757577473517 -8.444845851816737 15.638603429290255 -8.444845851816737
S 268.2013325936182 393.5461181496231 268.2013325936182 422.94669259668876
z" fill="none" stroke="none"></path>
<circle cx="0" cy="0" r="1.129641954094418" fill="#a3945d" opacity="0.9">
  <animateMotion begin="-2.398495806264984s" dur="9.5s" repeatCount="indefinite">
    <mpath xlink:href="#path74"></mpath>
  </animateMotion>
</circle><path id="path75" d="M 652.6668169460394 664.1474724243835
c 0 27.459360566876438 -6.718779713171894 7.887263141549615 -14.606042854721508 7.887263141549615
S 623.4547312365963 691.6068329912599 623.4547312365963 664.1474724243835
s 6.718779713171894 -7.887263141549615 14.606042854721508 -7.887263141549615
S 652.6668169460394 636.6881118575071 652.6668169460394 664.1474724243835
z" fill="none" stroke="none"></path>
<circle cx="0" cy="0" r="1.1838809889288542" fill="#a3945d" opacity="0.9">
  <animateMotion begin="-1.1358687003464376s" dur="9.5s" repeatCount="indefinite">
    <mpath xlink:href="#path75"></mpath>
  </animateMotion>
</circle><path id="path76" d="M 1590.3551911234536 815.2560236561285
c 0 23.30403307896656 -5.70205064698118 6.693711629064864 -12.395762276046042 6.693711629064864
S 1565.5636665713614 838.560056735095 1565.5636665713614 815.2560236561285
s 5.70205064698118 -6.693711629064864 12.395762276046042 -6.693711629064864
S 1590.3551911234536 791.951990577162 1590.3551911234536 815.2560236561285
z" fill="none" stroke="none"></path>
<circle cx="0" cy="0" r="0.9252439972627398" fill="#feeb54" opacity="0.9">
  <animateMotion begin="-2.8487643033162175s" dur="9.5s" repeatCount="indefinite">
    <mpath xlink:href="#path76"></mpath>
  </animateMotion>
</circle><path id="path77" d="M 591.3023235622973 463.5142036471464
c 0 36.77560279120333 -8.998285789336984 10.563205057047766 -19.56149084638475 10.563205057047766
S 552.1793418695277 500.28980643834973 552.1793418695277 463.5142036471464
s 8.998285789336984 -10.563205057047766 19.56149084638475 -10.563205057047766
S 591.3023235622973 426.7386008559431 591.3023235622973 463.5142036471464
z" fill="none" stroke="none"></path>
<circle cx="0" cy="0" r="1.1095007858100396" fill="#303f63" opacity="0.9">
  <animateMotion begin="-9.128152888332334s" dur="9.5s" repeatCount="indefinite">
    <mpath xlink:href="#path77"></mpath>
  </animateMotion>
</circle><path id="path78" d="M 1686.9085920032412 420.76302542936907
c 0 34.7729777082461 -8.508281779677237 9.987982958751541 -18.496264738428778 9.987982958751541
S 1649.9160625263835 455.5360031376152 1649.9160625263835 420.76302542936907
s 8.508281779677237 -9.987982958751541 18.496264738428778 -9.987982958751541
S 1686.9085920032412 385.99004772112295 1686.9085920032412 420.76302542936907
z" fill="none" stroke="none"></path>
<circle cx="0" cy="0" r="0.8622233625437015" fill="#2a3e83" opacity="0.9">
  <animateMotion begin="-5.080719582249589s" dur="9.5s" repeatCount="indefinite">
    <mpath xlink:href="#path78"></mpath>
  </animateMotion>
</circle><path id="path79" d="M 1161.126995879168 709.0599899808382
c 0 24.58161599638561 -6.014650722519883 7.0606769351320375 -13.07532765765192 7.0606769351320375
S 1134.976340563864 733.6416059772238 1134.976340563864 709.0599899808382
s 6.014650722519883 -7.0606769351320375 13.07532765765192 -7.0606769351320375
S 1161.126995879168 684.4783739844526 1161.126995879168 709.0599899808382
z" fill="none" stroke="none"></path>
<circle cx="0" cy="0" r="1.37130852353203" fill="#6d82b1" opacity="0.9">
  <animateMotion begin="-2.7503286068934534s" dur="9.5s" repeatCount="indefinite">
    <mpath xlink:href="#path79"></mpath>
  </animateMotion>
</circle><path id="path80" d="M 595.7394916038947 85.44838638792183
c 0 21.865498062597084 -5.3500686748907755 6.280515400958738 -11.630584075849512 6.280515400958738
S 572.4783234521958 107.31388445051891 572.4783234521958 85.44838638792183
s 5.3500686748907755 -6.280515400958738 11.630584075849512 -6.280515400958738
S 595.7394916038947 63.582888325324745 595.7394916038947 85.44838638792183
z" fill="none" stroke="none"></path>
<circle cx="0" cy="0" r="1.3378952733506173" fill="#dad69f" opacity="0.9">
  <animateMotion begin="-2.904129181127816s" dur="9.5s" repeatCount="indefinite">
    <mpath xlink:href="#path80"></mpath>
  </animateMotion>
</circle><path id="path81" d="M 1899.1055811846197 808.1999132348066
c 0 28.352200153682954 -6.93724046313519 8.143717065419573 -15.080957528554762 8.143717065419573
S 1868.9436661275101 836.5521133884895 1868.9436661275101 808.1999132348066
s 6.93724046313519 -8.143717065419573 15.080957528554762 -8.143717065419573
S 1899.1055811846197 779.8477130811236 1899.1055811846197 808.1999132348066
z" fill="none" stroke="none"></path>
<circle cx="0" cy="0" r="1.4924437467224392" fill="#303f63" opacity="0.9">
  <animateMotion begin="-2.5886035914213537s" dur="9.5s" repeatCount="indefinite">
    <mpath xlink:href="#path81"></mpath>
  </animateMotion>
</circle><path id="path82" d="M 270.84768261855163 151.25774178478076
c 0 33.68465267096793 -8.24198948332194 9.675378958682277 -17.917368442004214 9.675378958682277
S 235.01294573454322 184.94239445574868 235.01294573454322 151.25774178478076
s 8.24198948332194 -9.675378958682277 17.917368442004214 -9.675378958682277
S 270.84768261855163 117.57308911381284 270.84768261855163 151.25774178478076
z" fill="none" stroke="none"></path>
<circle cx="0" cy="0" r="1.3539114809873982" fill="#dad69f" opacity="0.9">
  <animateMotion begin="-6.485500478961187s" dur="9.5s" repeatCount="indefinite">
    <mpath xlink:href="#path82"></mpath>
  </animateMotion>
</circle><path id="path83" d="M 554.7158083722078 536.3536861072921
c 0 30.573235488121895 -7.480685279008548 8.78167402318395 -16.262359302192497 8.78167402318395
S 522.1910897678227 566.926921595414 522.1910897678227 536.3536861072921
s 7.480685279008548 -8.78167402318395 16.262359302192497 -8.78167402318395
S 554.7158083722078 505.7804506191702 554.7158083722078 536.3536861072921
z" fill="none" stroke="none"></path>
<circle cx="0" cy="0" r="1.3697599305009547" fill="#303f63" opacity="0.9">
  <animateMotion begin="-7.283463472148993s" dur="9.5s" repeatCount="indefinite">
    <mpath xlink:href="#path83"></mpath>
  </animateMotion>
</circle><path id="path84" d="M 652.9806698160132 316.4175165849736
c 0 33.07940282678138 -8.093896436340126 9.501530599181887 -17.595427035522015 9.501530599181887
S 617.7898157449692 349.496919411755 617.7898157449692 316.4175165849736
s 8.093896436340126 -9.501530599181887 17.595427035522015 -9.501530599181887
S 652.9806698160132 283.3381137581922 652.9806698160132 316.4175165849736
z" fill="none" stroke="none"></path>
<circle cx="0" cy="0" r="1.295955131042466" fill="#feeb54" opacity="0.9">
  <animateMotion begin="-4.818397202109522s" dur="9.5s" repeatCount="indefinite">
    <mpath xlink:href="#path84"></mpath>
  </animateMotion>
</circle><path id="path85" d="M 512.2940601216977 848.8294842314449
c 0 23.209777687065774 -5.6789881574735395 6.6666382718167645 -12.345626429290304 6.6666382718167645
S 487.6028072631171 872.0392619185106 487.6028072631171 848.8294842314449
s 5.6789881574735395 -6.6666382718167645 12.345626429290304 -6.6666382718167645
S 512.2940601216977 825.6197065443791 512.2940601216977 848.8294842314449
z" fill="none" stroke="none"></path>
<circle cx="0" cy="0" r="0.9863180756907785" fill="#303f63" opacity="0.9">
  <animateMotion begin="-7.885427874932539s" dur="9.5s" repeatCount="indefinite">
    <mpath xlink:href="#path85"></mpath>
  </animateMotion>
</circle><path id="path86" d="M 1673.514985432591 463.1262516613131
c 0 25.94239844881346 -6.347608131092654 7.451539979978334 -13.79914811107099 7.451539979978334
S 1645.916689210449 489.06865011012655 1645.916689210449 463.1262516613131
s 6.347608131092654 -7.451539979978334 13.79914811107099 -7.451539979978334
S 1673.514985432591 437.1838532124997 1673.514985432591 463.1262516613131
z" fill="none" stroke="none"></path>
<circle cx="0" cy="0" r="1.4604721260992117" fill="#151e2f" opacity="0.9">
  <animateMotion begin="-0.5821835386670625s" dur="9.5s" repeatCount="indefinite">
    <mpath xlink:href="#path86"></mpath>
  </animateMotion>
</circle><path id="path87" d="M 962.6683831197576 76.4794708249063
c 0 19.054968959599325 -4.662386022029621 5.473235764991295 -10.135621787020916 5.473235764991295
S 942.3971395457157 95.53443978450562 942.3971395457157 76.4794708249063
s 4.662386022029621 -5.473235764991295 10.135621787020916 -5.473235764991295
S 962.6683831197576 57.42450186530698 962.6683831197576 76.4794708249063
z" fill="none" stroke="none"></path>
<circle cx="0" cy="0" r="0.7957853457508173" fill="#151e2f" opacity="0.9">
  <animateMotion begin="-8.304214382315127s" dur="9.5s" repeatCount="indefinite">
    <mpath xlink:href="#path87"></mpath>
  </animateMotion>
</circle><path id="path88" d="M 1497.093801094195 348.3399460261676
c 0 22.217567092902545 -5.436213224859133 6.381641611791157 -11.817854836650291 6.381641611791157
S 1473.4580914208946 370.5575131190701 1473.4580914208946 348.3399460261676
s 5.436213224859133 -6.381641611791157 11.817854836650291 -6.381641611791157
S 1497.093801094195 326.12237893326505 1497.093801094195 348.3399460261676
z" fill="none" stroke="none"></path>
<circle cx="0" cy="0" r="1.3919829530990817" fill="#feeb54" opacity="0.9">
  <animateMotion begin="-4.521437694150052s" dur="9.5s" repeatCount="indefinite">
    <mpath xlink:href="#path88"></mpath>
  </animateMotion>
</circle><path id="path89" d="M 682.4342683732733 478.6071314802307
c 0 29.088589632172642 -7.117420867446496 8.355233192219801 -15.472654059666297 8.355233192219801
S 651.4889602539407 507.69572111240336 651.4889602539407 478.6071314802307
s 7.117420867446496 -8.355233192219801 15.472654059666297 -8.355233192219801
S 682.4342683732733 449.518541848058 682.4342683732733 478.6071314802307
z" fill="none" stroke="none"></path>
<circle cx="0" cy="0" r="1.1134791231098684" fill="#151e2f" opacity="0.9">
  <animateMotion begin="-4.662103787106883s" dur="9.5s" repeatCount="indefinite">
    <mpath xlink:href="#path89"></mpath>
  </animateMotion>
</circle><path id="path90" d="M 173.32327633476007 653.1308008976648
c 0 37.02235779491246 -9.058662013648792 10.634081494283366 -19.69274350793216 10.634081494283366
S 133.93778931889574 690.1531586925772 133.93778931889574 653.1308008976648
s 9.058662013648792 -10.634081494283366 19.69274350793216 -10.634081494283366
S 173.32327633476007 616.1084431027524 173.32327633476007 653.1308008976648
z" fill="none" stroke="none"></path>
<circle cx="0" cy="0" r="0.9101632600897422" fill="#151e2f" opacity="0.9">
  <animateMotion begin="-4.597401457971498s" dur="9.5s" repeatCount="indefinite">
    <mpath xlink:href="#path90"></mpath>
  </animateMotion>
</circle><path id="path91" d="M 548.6191242918248 501.67217117152353
c 0 33.66762473518965 -8.237823073503849 9.670487955852346 -17.908311029356195 9.670487955852346
S 512.8025022331124 535.3397959067132 512.8025022331124 501.67217117152353
s 8.237823073503849 -9.670487955852346 17.908311029356195 -9.670487955852346
S 548.6191242918248 468.0045464363339 548.6191242918248 501.67217117152353
z" fill="none" stroke="none"></path>
<circle cx="0" cy="0" r="1.1301763424066396" fill="#303f63" opacity="0.9">
  <animateMotion begin="-0.35713445790891984s" dur="9.5s" repeatCount="indefinite">
    <mpath xlink:href="#path91"></mpath>
  </animateMotion>
</circle><path id="path92" d="M 1470.5757340546866 452.0421669762888
c 0 23.47181105415791 -5.743102704740765 6.7419031751304646 -12.48500587987123 6.7419031751304646
S 1445.605722294944 475.5139780304467 1445.605722294944 452.0421669762888
s 5.743102704740765 -6.7419031751304646 12.48500587987123 -6.7419031751304646
S 1470.5757340546866 428.5703559221309 1470.5757340546866 452.0421669762888
z" fill="none" stroke="none"></path>
<circle cx="0" cy="0" r="0.7944619154959367" fill="#feeb54" opacity="0.9">
  <animateMotion begin="-6.730143310998801s" dur="9.5s" repeatCount="indefinite">
    <mpath xlink:href="#path92"></mpath>
  </animateMotion>
</circle><path id="path93" d="M 863.2737559445201 552.2094557568015
c 0 32.16866959101752 -7.871057453121308 9.239937010185884 -17.110994463307193 9.239937010185884
S 829.0517670179057 584.378125347819 829.0517670179057 552.2094557568015
s 7.871057453121308 -9.239937010185884 17.110994463307193 -9.239937010185884
S 863.2737559445201 520.040786165784 863.2737559445201 552.2094557568015
z" fill="none" stroke="none"></path>
<circle cx="0" cy="0" r="0.9083359412970415" fill="#6d82b1" opacity="0.9">
  <animateMotion begin="-9.49856299255039s" dur="9.5s" repeatCount="indefinite">
    <mpath xlink:href="#path93"></mpath>
  </animateMotion>
</circle><path id="path94" d="M 593.3511060601568 905.3412173644105
c 0 23.22019239536426 -5.6815364371635955 6.6696297305833525 -12.351166167746948 6.6696297305833525
S 568.648773724663 928.5614097597747 568.648773724663 905.3412173644105
s 5.6815364371635955 -6.6696297305833525 12.351166167746948 -6.6696297305833525
S 593.3511060601568 882.1210249690462 593.3511060601568 905.3412173644105
z" fill="none" stroke="none"></path>
<circle cx="0" cy="0" r="1.1772243918060465" fill="#dad69f" opacity="0.9">
  <animateMotion begin="-3.0893451906601253s" dur="9.5s" repeatCount="indefinite">
    <mpath xlink:href="#path94"></mpath>
  </animateMotion>
</circle><path id="path95" d="M 1391.3821520310992 104.07661346721818
c 0 27.17681446322875 -6.649646092066609 7.806106281991237 -14.455752374057846 7.806106281991237
S 1362.4706472829837 131.25342793044695 1362.4706472829837 104.07661346721818
s 6.649646092066609 -7.806106281991237 14.455752374057846 -7.806106281991237
S 1391.3821520310992 76.89979900398943 1391.3821520310992 104.07661346721818
z" fill="none" stroke="none"></path>
<circle cx="0" cy="0" r="1.0037714965647169" fill="#151e2f" opacity="0.9">
  <animateMotion begin="-4.174499410224837s" dur="9.5s" repeatCount="indefinite">
    <mpath xlink:href="#path95"></mpath>
  </animateMotion>
</circle><path id="path96" d="M 991.5214378654447 232.4187888757283
c 0 33.935489413281935 -8.303364430909408 9.747427810198003 -18.050792241107413 9.747427810198003
S 955.4198533832299 266.3542782890102 955.4198533832299 232.4187888757283
s 8.303364430909408 -9.747427810198003 18.050792241107413 -9.747427810198003
S 991.5214378654447 198.48329946244635 991.5214378654447 232.4187888757283
z" fill="none" stroke="none"></path>
<circle cx="0" cy="0" r="1.2579455552622147" fill="#a3945d" opacity="0.9">
  <animateMotion begin="-3.643896309513309s" dur="9.5s" repeatCount="indefinite">
    <mpath xlink:href="#path96"></mpath>
  </animateMotion>
</circle><path id="path97" d="M 502.6329740525776 80.9536256817958
c 0 20.582043072701833 -5.036031815661087 5.911863435776059 -10.947895251437146 5.911863435776059
S 480.7371835497033 101.53566875449764 480.7371835497033 80.9536256817958
s 5.036031815661087 -5.911863435776059 10.947895251437146 -5.911863435776059
S 502.6329740525776 60.37158260909396 502.6329740525776 80.9536256817958
z" fill="none" stroke="none"></path>
<circle cx="0" cy="0" r="1.3828281235835427" fill="#303f63" opacity="0.9">
  <animateMotion begin="-7.9437884479495855s" dur="9.5s" repeatCount="indefinite">
    <mpath xlink:href="#path97"></mpath>
  </animateMotion>
</circle><path id="path98" d="M 1806.492000213317 362.0901214103275
c 0 18.851464022448745 -4.612592260811926 5.414782219214001 -10.027374480025928 5.414782219214001
S 1786.4372512532652 380.94158543277626 1786.4372512532652 362.0901214103275
s 4.612592260811926 -5.414782219214001 10.027374480025928 -5.414782219214001
S 1806.492000213317 343.2386573878788 1806.492000213317 362.0901214103275
z" fill="none" stroke="none"></path>
<circle cx="0" cy="0" r="1.038809683081018" fill="#a3945d" opacity="0.9">
  <animateMotion begin="-9.342624286065911s" dur="9.5s" repeatCount="indefinite">
    <mpath xlink:href="#path98"></mpath>
  </animateMotion>
</circle><path id="path99" d="M 1866.4304878165665 50.74779286320682
c 0 20.778115868251877 -5.084007074146735 5.968182217476603 -11.052189291623337 5.968182217476603
S 1844.3261092333198 71.5259087314587 1844.3261092333198 50.74779286320682
s 5.084007074146735 -5.968182217476603 11.052189291623337 -5.968182217476603
S 1866.4304878165665 29.96967699495494 1866.4304878165665 50.74779286320682
z" fill="none" stroke="none"></path>
<circle cx="0" cy="0" r="0.8298282176910179" fill="#dad69f" opacity="0.9">
  <animateMotion begin="-1.5091966770334475s" dur="9.5s" repeatCount="indefinite">
    <mpath xlink:href="#path99"></mpath>
  </animateMotion>
</circle></g>
</svg>